<?xml version="1.0" standalone="no"?>
<!DOCTYPE svg PUBLIC "-//W3C//DTD SVG 1.1//EN" "http://www.w3.org/Graphics/SVG/1.1/DTD/svg11.dtd">
<svg version="1.1" width="1200" height="678" onload="init(evt)" viewBox="0 0 1200 678" xmlns="http://www.w3.org/2000/svg" xmlns:xlink="http://www.w3.org/1999/xlink">
<!-- Flame graph stack visualization. See https://github.com/brendangregg/FlameGraph for latest version, and http://www.brendangregg.com/flamegraphs.html for examples. -->
<!-- NOTES:  -->
<defs>
	<linearGradient id="background" y1="0" y2="1" x1="0" x2="0" >
		<stop stop-color="#eeeeee" offset="5%" />
		<stop stop-color="#eeeeb0" offset="95%" />
	</linearGradient>
</defs>
<style type="text/css">
	text { font-family:Verdana; font-size:12px; fill:rgb(0,0,0); }
	#search, #ignorecase { opacity:0.1; cursor:pointer; }
	#search:hover, #search.show, #ignorecase:hover, #ignorecase.show { opacity:1; }
	#subtitle { text-anchor:middle; font-color:rgb(160,160,160); }
	#title { text-anchor:middle; font-size:17px}
	#unzoom { cursor:pointer; }
	#frames > *:hover { stroke:black; stroke-width:0.5; cursor:pointer; }
	.hide { display:none; }
	.parent { opacity:0.5; }
</style>
<script type="text/ecmascript">
<![CDATA[
	"use strict";
	var details, searchbtn, unzoombtn, matchedtxt, svg, searching, currentSearchTerm, ignorecase, ignorecaseBtn;
	function init(evt) {
		details = document.getElementById("details").firstChild;
		searchbtn = document.getElementById("search");
		ignorecaseBtn = document.getElementById("ignorecase");
		unzoombtn = document.getElementById("unzoom");
		matchedtxt = document.getElementById("matched");
		svg = document.getElementsByTagName("svg")[0];
		searching = 0;
		currentSearchTerm = null;

		// use GET parameters to restore a flamegraphs state.
		var params = get_params();
		if (params.x && params.y)
			zoom(find_group(document.querySelector('[x="' + params.x + '"][y="' + params.y + '"]')));
                if (params.s) search(params.s);
	}

	// event listeners
	window.addEventListener("click", function(e) {
		var target = find_group(e.target);
		if (target) {
			if (target.nodeName == "a") {
				if (e.ctrlKey === false) return;
				e.preventDefault();
			}
			if (target.classList.contains("parent")) unzoom(true);
			zoom(target);
			if (!document.querySelector('.parent')) {
				// we have basically done a clearzoom so clear the url
				var params = get_params();
				if (params.x) delete params.x;
				if (params.y) delete params.y;
				history.replaceState(null, null, parse_params(params));
				unzoombtn.classList.add("hide");
				return;
			}

			// set parameters for zoom state
			var el = target.querySelector("rect");
			if (el && el.attributes && el.attributes.y && el.attributes._orig_x) {
				var params = get_params()
				params.x = el.attributes._orig_x.value;
				params.y = el.attributes.y.value;
				history.replaceState(null, null, parse_params(params));
			}
		}
		else if (e.target.id == "unzoom") clearzoom();
		else if (e.target.id == "search") search_prompt();
		else if (e.target.id == "ignorecase") toggle_ignorecase();
	}, false)

	// mouse-over for info
	// show
	window.addEventListener("mouseover", function(e) {
		var target = find_group(e.target);
		if (target) details.nodeValue = "Function: " + g_to_text(target);
	}, false)

	// clear
	window.addEventListener("mouseout", function(e) {
		var target = find_group(e.target);
		if (target) details.nodeValue = ' ';
	}, false)

	// ctrl-F for search
	// ctrl-I to toggle case-sensitive search
	window.addEventListener("keydown",function (e) {
		if (e.keyCode === 114 || (e.ctrlKey && e.keyCode === 70)) {
			e.preventDefault();
			search_prompt();
		}
		else if (e.ctrlKey && e.keyCode === 73) {
			e.preventDefault();
			toggle_ignorecase();
		}
	}, false)

	// functions
	function get_params() {
		var params = {};
		var paramsarr = window.location.search.substr(1).split('&');
		for (var i = 0; i < paramsarr.length; ++i) {
			var tmp = paramsarr[i].split("=");
			if (!tmp[0] || !tmp[1]) continue;
			params[tmp[0]]  = decodeURIComponent(tmp[1]);
		}
		return params;
	}
	function parse_params(params) {
		var uri = "?";
		for (var key in params) {
			uri += key + '=' + encodeURIComponent(params[key]) + '&';
		}
		if (uri.slice(-1) == "&")
			uri = uri.substring(0, uri.length - 1);
		if (uri == '?')
			uri = window.location.href.split('?')[0];
		return uri;
	}
	function find_child(node, selector) {
		var children = node.querySelectorAll(selector);
		if (children.length) return children[0];
	}
	function find_group(node) {
		var parent = node.parentElement;
		if (!parent) return;
		if (parent.id == "frames") return node;
		return find_group(parent);
	}
	function orig_save(e, attr, val) {
		if (e.attributes["_orig_" + attr] != undefined) return;
		if (e.attributes[attr] == undefined) return;
		if (val == undefined) val = e.attributes[attr].value;
		e.setAttribute("_orig_" + attr, val);
	}
	function orig_load(e, attr) {
		if (e.attributes["_orig_"+attr] == undefined) return;
		e.attributes[attr].value = e.attributes["_orig_" + attr].value;
		e.removeAttribute("_orig_"+attr);
	}
	function g_to_text(e) {
		var text = find_child(e, "title").firstChild.nodeValue;
		return (text)
	}
	function g_to_func(e) {
		var func = g_to_text(e);
		// if there's any manipulation we want to do to the function
		// name before it's searched, do it here before returning.
		return (func);
	}
	function update_text(e) {
		var r = find_child(e, "rect");
		var t = find_child(e, "text");
		var w = parseFloat(r.attributes.width.value) -3;
		var txt = find_child(e, "title").textContent.replace(/\([^(]*\)$/,"");
		t.attributes.x.value = parseFloat(r.attributes.x.value) + 3;

		// Smaller than this size won't fit anything
		if (w < 2 * 12 * 0.59) {
			t.textContent = "";
			return;
		}

		t.textContent = txt;
		var sl = t.getSubStringLength(0, txt.length);
		// check if only whitespace or if we can fit the entire string into width w
		if (/^ *$/.test(txt) || sl < w)
			return;

		// this isn't perfect, but gives a good starting point
		// and avoids calling getSubStringLength too often
		var start = Math.floor((w/sl) * txt.length);
		for (var x = start; x > 0; x = x-2) {
			if (t.getSubStringLength(0, x + 2) <= w) {
				t.textContent = txt.substring(0, x) + "..";
				return;
			}
		}
		t.textContent = "";
	}

	// zoom
	function zoom_reset(e) {
		if (e.attributes != undefined) {
			orig_load(e, "x");
			orig_load(e, "width");
		}
		if (e.childNodes == undefined) return;
		for (var i = 0, c = e.childNodes; i < c.length; i++) {
			zoom_reset(c[i]);
		}
	}
	function zoom_child(e, x, ratio) {
		if (e.attributes != undefined) {
			if (e.attributes.x != undefined) {
				orig_save(e, "x");
				e.attributes.x.value = (parseFloat(e.attributes.x.value) - x - 10) * ratio + 10;
				if (e.tagName == "text")
					e.attributes.x.value = find_child(e.parentNode, "rect[x]").attributes.x.value + 3;
			}
			if (e.attributes.width != undefined) {
				orig_save(e, "width");
				e.attributes.width.value = parseFloat(e.attributes.width.value) * ratio;
			}
		}

		if (e.childNodes == undefined) return;
		for (var i = 0, c = e.childNodes; i < c.length; i++) {
			zoom_child(c[i], x - 10, ratio);
		}
	}
	function zoom_parent(e) {
		if (e.attributes) {
			if (e.attributes.x != undefined) {
				orig_save(e, "x");
				e.attributes.x.value = 10;
			}
			if (e.attributes.width != undefined) {
				orig_save(e, "width");
				e.attributes.width.value = parseInt(svg.width.baseVal.value) - (10 * 2);
			}
		}
		if (e.childNodes == undefined) return;
		for (var i = 0, c = e.childNodes; i < c.length; i++) {
			zoom_parent(c[i]);
		}
	}
	function zoom(node) {
		var attr = find_child(node, "rect").attributes;
		var width = parseFloat(attr.width.value);
		var xmin = parseFloat(attr.x.value);
		var xmax = parseFloat(xmin + width);
		var ymin = parseFloat(attr.y.value);
		var ratio = (svg.width.baseVal.value - 2 * 10) / width;

		// XXX: Workaround for JavaScript float issues (fix me)
		var fudge = 0.0001;

		unzoombtn.classList.remove("hide");

		var el = document.getElementById("frames").children;
		for (var i = 0; i < el.length; i++) {
			var e = el[i];
			var a = find_child(e, "rect").attributes;
			var ex = parseFloat(a.x.value);
			var ew = parseFloat(a.width.value);
			var upstack;
			// Is it an ancestor
			if (0 == 0) {
				upstack = parseFloat(a.y.value) > ymin;
			} else {
				upstack = parseFloat(a.y.value) < ymin;
			}
			if (upstack) {
				// Direct ancestor
				if (ex <= xmin && (ex+ew+fudge) >= xmax) {
					e.classList.add("parent");
					zoom_parent(e);
					update_text(e);
				}
				// not in current path
				else
					e.classList.add("hide");
			}
			// Children maybe
			else {
				// no common path
				if (ex < xmin || ex + fudge >= xmax) {
					e.classList.add("hide");
				}
				else {
					zoom_child(e, xmin, ratio);
					update_text(e);
				}
			}
		}
		search();
	}
	function unzoom(dont_update_text) {
		unzoombtn.classList.add("hide");
		var el = document.getElementById("frames").children;
		for(var i = 0; i < el.length; i++) {
			el[i].classList.remove("parent");
			el[i].classList.remove("hide");
			zoom_reset(el[i]);
			if(!dont_update_text) update_text(el[i]);
		}
		search();
	}
	function clearzoom() {
		unzoom();

		// remove zoom state
		var params = get_params();
		if (params.x) delete params.x;
		if (params.y) delete params.y;
		history.replaceState(null, null, parse_params(params));
	}

	// search
	function toggle_ignorecase() {
		ignorecase = !ignorecase;
		if (ignorecase) {
			ignorecaseBtn.classList.add("show");
		} else {
			ignorecaseBtn.classList.remove("show");
		}
		reset_search();
		search();
	}
	function reset_search() {
		var el = document.querySelectorAll("#frames rect");
		for (var i = 0; i < el.length; i++) {
			orig_load(el[i], "fill")
		}
		var params = get_params();
		delete params.s;
		history.replaceState(null, null, parse_params(params));
	}
	function search_prompt() {
		if (!searching) {
			var term = prompt("Enter a search term (regexp " +
			    "allowed, eg: ^ext4_)"
			    + (ignorecase ? ", ignoring case" : "")
			    + "\nPress Ctrl-i to toggle case sensitivity", "");
			if (term != null) search(term);
		} else {
			reset_search();
			searching = 0;
			currentSearchTerm = null;
			searchbtn.classList.remove("show");
			searchbtn.firstChild.nodeValue = "Search"
			matchedtxt.classList.add("hide");
			matchedtxt.firstChild.nodeValue = ""
		}
	}
	function search(term) {
		if (term) currentSearchTerm = term;
		if (currentSearchTerm === null) return;

		var re = new RegExp(currentSearchTerm, ignorecase ? 'i' : '');
		var el = document.getElementById("frames").children;
		var matches = new Object();
		var maxwidth = 0;
		for (var i = 0; i < el.length; i++) {
			var e = el[i];
			var func = g_to_func(e);
			var rect = find_child(e, "rect");
			if (func == null || rect == null)
				continue;

			// Save max width. Only works as we have a root frame
			var w = parseFloat(rect.attributes.width.value);
			if (w > maxwidth)
				maxwidth = w;

			if (func.match(re)) {
				// highlight
				var x = parseFloat(rect.attributes.x.value);
				orig_save(rect, "fill");
				rect.attributes.fill.value = "rgb(230,0,230)";

				// remember matches
				if (matches[x] == undefined) {
					matches[x] = w;
				} else {
					if (w > matches[x]) {
						// overwrite with parent
						matches[x] = w;
					}
				}
				searching = 1;
			}
		}
		if (!searching)
			return;
		var params = get_params();
		params.s = currentSearchTerm;
		history.replaceState(null, null, parse_params(params));

		searchbtn.classList.add("show");
		searchbtn.firstChild.nodeValue = "Reset Search";

		// calculate percent matched, excluding vertical overlap
		var count = 0;
		var lastx = -1;
		var lastw = 0;
		var keys = Array();
		for (k in matches) {
			if (matches.hasOwnProperty(k))
				keys.push(k);
		}
		// sort the matched frames by their x location
		// ascending, then width descending
		keys.sort(function(a, b){
			return a - b;
		});
		// Step through frames saving only the biggest bottom-up frames
		// thanks to the sort order. This relies on the tree property
		// where children are always smaller than their parents.
		var fudge = 0.0001;	// JavaScript floating point
		for (var k in keys) {
			var x = parseFloat(keys[k]);
			var w = matches[keys[k]];
			if (x >= lastx + lastw - fudge) {
				count += w;
				lastx = x;
				lastw = w;
			}
		}
		// display matched percent
		matchedtxt.classList.remove("hide");
		var pct = 100 * count / maxwidth;
		if (pct != 100) pct = pct.toFixed(1)
		matchedtxt.firstChild.nodeValue = "Matched: " + pct + "%";
	}
]]>
</script>
<rect x="0.0" y="0" width="1200.0" height="678.0" fill="url(#background)"  />
<text id="title" x="600.00" y="24" >Flame Graph</text>
<text id="details" x="10.00" y="661" > </text>
<text id="unzoom" x="10.00" y="24" class="hide">Reset Zoom</text>
<text id="search" x="1090.00" y="24" >Search</text>
<text id="ignorecase" x="1174.00" y="24" >ic</text>
<text id="matched" x="1090.00" y="661" > </text>
<g id="frames">
<g >
<title>Perl_lex_read_space (250,000 samples, 3.45%)</title><rect x="620.3" y="117" width="40.7" height="15.0" fill="rgb(247,194,46)" rx="2" ry="2" />
<text  x="623.34" y="127.5" >Per..</text>
</g>
<g >
<title>__libc_start_call_main (250,000 samples, 3.45%)</title><rect x="986.6" y="565" width="40.6" height="15.0" fill="rgb(210,26,6)" rx="2" ry="2" />
<text  x="989.55" y="575.5" >__l..</text>
</g>
<g >
<title>[libperl.so.5.40.0] (250,000 samples, 3.45%)</title><rect x="213.4" y="341" width="40.7" height="15.0" fill="rgb(208,17,4)" rx="2" ry="2" />
<text  x="216.45" y="351.5" >[li..</text>
</g>
<g >
<title>[libperl.so.5.40.0] (250,000 samples, 3.45%)</title><rect x="132.1" y="293" width="40.7" height="15.0" fill="rgb(208,17,4)" rx="2" ry="2" />
<text  x="135.07" y="303.5" >[li..</text>
</g>
<g >
<title>_IO_doallocbuf (250,000 samples, 3.45%)</title><rect x="1108.6" y="453" width="40.7" height="15.0" fill="rgb(214,45,10)" rx="2" ry="2" />
<text  x="1111.62" y="463.5" >_IO..</text>
</g>
<g >
<title>[libperl.so.5.40.0] (250,000 samples, 3.45%)</title><rect x="905.2" y="469" width="40.7" height="15.0" fill="rgb(208,17,4)" rx="2" ry="2" />
<text  x="908.17" y="479.5" >[li..</text>
</g>
<g >
<title>Perl_newASSIGNOP (250,000 samples, 3.45%)</title><rect x="132.1" y="357" width="40.7" height="15.0" fill="rgb(211,29,6)" rx="2" ry="2" />
<text  x="135.07" y="367.5" >Per..</text>
</g>
<g >
<title>std::basic_ostream&lt;char, std::char_traits&lt;char&gt; &gt;&amp; std::operator&lt;&lt; &lt;std::char_traits&lt;char&gt; &gt; (250,000 samples, 3.45%)</title><rect x="1108.6" y="533" width="40.7" height="15.0" fill="rgb(235,139,33)" rx="2" ry="2" />
<text  x="1111.62" y="543.5" >std..</text>
</g>
<g >
<title>Perl_safesysmalloc (250,000 samples, 3.45%)</title><rect x="783.1" y="213" width="40.7" height="15.0" fill="rgb(215,48,11)" rx="2" ry="2" />
<text  x="786.10" y="223.5" >Per..</text>
</g>
<g >
<title>[libperl.so.5.40.0] (250,000 samples, 3.45%)</title><rect x="620.3" y="165" width="40.7" height="15.0" fill="rgb(208,17,4)" rx="2" ry="2" />
<text  x="623.34" y="175.5" >[li..</text>
</g>
<g >
<title>malloc_consolidate (250,000 samples, 3.45%)</title><rect x="335.5" y="213" width="40.7" height="15.0" fill="rgb(239,159,38)" rx="2" ry="2" />
<text  x="338.52" y="223.5" >mal..</text>
</g>
<g >
<title>do_lookup_x (250,000 samples, 3.45%)</title><rect x="1067.9" y="501" width="40.7" height="15.0" fill="rgb(245,187,44)" rx="2" ry="2" />
<text  x="1070.93" y="511.5" >do_..</text>
</g>
<g >
<title>[libperl.so.5.40.0] (500,000 samples, 6.90%)</title><rect x="294.8" y="309" width="81.4" height="15.0" fill="rgb(208,17,4)" rx="2" ry="2" />
<text  x="297.83" y="319.5" >[libperl...</text>
</g>
<g >
<title>[libperl.so.5.40.0] (250,000 samples, 3.45%)</title><rect x="905.2" y="405" width="40.7" height="15.0" fill="rgb(208,17,4)" rx="2" ry="2" />
<text  x="908.17" y="415.5" >[li..</text>
</g>
<g >
<title>_IO_file_xsputn@@GLIBC_2.17 (250,000 samples, 3.45%)</title><rect x="1108.6" y="485" width="40.7" height="15.0" fill="rgb(233,129,30)" rx="2" ry="2" />
<text  x="1111.62" y="495.5" >_IO..</text>
</g>
<g >
<title>Perl__add_range_to_invlist (250,000 samples, 3.45%)</title><rect x="783.1" y="261" width="40.7" height="15.0" fill="rgb(246,188,45)" rx="2" ry="2" />
<text  x="786.10" y="271.5" >Per..</text>
</g>
<g >
<title>ls (750,000 samples, 10.34%)</title><rect x="986.6" y="613" width="122.0" height="15.0" fill="rgb(222,82,19)" rx="2" ry="2" />
<text  x="989.55" y="623.5" >ls</text>
</g>
<g >
<title>Perl_pad_findmy_pvn (250,000 samples, 3.45%)</title><rect x="701.7" y="341" width="40.7" height="15.0" fill="rgb(247,193,46)" rx="2" ry="2" />
<text  x="704.72" y="351.5" >Per..</text>
</g>
<g >
<title>Perl_safesyscalloc (250,000 samples, 3.45%)</title><rect x="823.8" y="293" width="40.7" height="15.0" fill="rgb(230,115,27)" rx="2" ry="2" />
<text  x="826.79" y="303.5" >Per..</text>
</g>
<g >
<title>[libperl.so.5.40.0] (750,000 samples, 10.34%)</title><rect x="539.0" y="229" width="122.0" height="15.0" fill="rgb(208,17,4)" rx="2" ry="2" />
<text  x="541.97" y="239.5" >[libperl.so.5.4..</text>
</g>
<g >
<title>malloc (250,000 samples, 3.45%)</title><rect x="335.5" y="245" width="40.7" height="15.0" fill="rgb(230,119,28)" rx="2" ry="2" />
<text  x="338.52" y="255.5" >mal..</text>
</g>
<g >
<title>__libc_start_call_main (5,750,000 samples, 79.31%)</title><rect x="10.0" y="565" width="935.9" height="15.0" fill="rgb(210,26,6)" rx="2" ry="2" />
<text  x="13.00" y="575.5" >__libc_start_call_main</text>
</g>
<g >
<title>Perl_op_force_list (250,000 samples, 3.45%)</title><rect x="132.1" y="341" width="40.7" height="15.0" fill="rgb(206,4,1)" rx="2" ry="2" />
<text  x="135.07" y="351.5" >Per..</text>
</g>
<g >
<title>_dl_open (250,000 samples, 3.45%)</title><rect x="498.3" y="149" width="40.7" height="15.0" fill="rgb(238,156,37)" rx="2" ry="2" />
<text  x="501.28" y="159.5" >_dl..</text>
</g>
<g >
<title>_int_malloc (250,000 samples, 3.45%)</title><rect x="823.8" y="261" width="40.7" height="15.0" fill="rgb(215,47,11)" rx="2" ry="2" />
<text  x="826.79" y="271.5" >_in..</text>
</g>
<g >
<title>Perl_runops_standard (1,500,000 samples, 20.69%)</title><rect x="416.9" y="277" width="244.1" height="15.0" fill="rgb(212,32,7)" rx="2" ry="2" />
<text  x="419.90" y="287.5" >Perl_runops_standard</text>
</g>
<g >
<title>shell (500,000 samples, 6.90%)</title><rect x="1108.6" y="613" width="81.4" height="15.0" fill="rgb(251,211,50)" rx="2" ry="2" />
<text  x="1111.62" y="623.5" >shell</text>
</g>
<g >
<title>_dl_sysdep_start (250,000 samples, 3.45%)</title><rect x="945.9" y="565" width="40.7" height="15.0" fill="rgb(234,137,32)" rx="2" ry="2" />
<text  x="948.86" y="575.5" >_dl..</text>
</g>
<g >
<title>_IO_fwrite (250,000 samples, 3.45%)</title><rect x="1108.6" y="501" width="40.7" height="15.0" fill="rgb(210,23,5)" rx="2" ry="2" />
<text  x="1111.62" y="511.5" >_IO..</text>
</g>
<g >
<title>Perl_runops_standard (250,000 samples, 3.45%)</title><rect x="905.2" y="517" width="40.7" height="15.0" fill="rgb(212,32,7)" rx="2" ry="2" />
<text  x="908.17" y="527.5" >Per..</text>
</g>
<g >
<title>Perl_newOP (250,000 samples, 3.45%)</title><rect x="132.1" y="309" width="40.7" height="15.0" fill="rgb(237,150,35)" rx="2" ry="2" />
<text  x="135.07" y="319.5" >Per..</text>
</g>
<g >
<title>pthread_mutex_unlock@@GLIBC_2.17 (250,000 samples, 3.45%)</title><rect x="498.3" y="37" width="40.7" height="15.0" fill="rgb(218,61,14)" rx="2" ry="2" />
<text  x="501.28" y="47.5" >pth..</text>
</g>
<g >
<title>Perl_call_sv (1,500,000 samples, 20.69%)</title><rect x="416.9" y="293" width="244.1" height="15.0" fill="rgb(216,51,12)" rx="2" ry="2" />
<text  x="419.90" y="303.5" >Perl_call_sv</text>
</g>
<g >
<title>[libperl.so.5.40.0] (500,000 samples, 6.90%)</title><rect x="742.4" y="325" width="81.4" height="15.0" fill="rgb(208,17,4)" rx="2" ry="2" />
<text  x="745.41" y="335.5" >[libperl...</text>
</g>
<g >
<title>Perl_newATTRSUB_x (1,500,000 samples, 20.69%)</title><rect x="416.9" y="341" width="244.1" height="15.0" fill="rgb(229,112,26)" rx="2" ry="2" />
<text  x="419.90" y="351.5" >Perl_newATTRSUB_x</text>
</g>
<g >
<title>[ls] (250,000 samples, 3.45%)</title><rect x="986.6" y="549" width="40.6" height="15.0" fill="rgb(234,135,32)" rx="2" ry="2" />
<text  x="989.55" y="559.5" >[ls]</text>
</g>
<g >
<title>Perl__new_invlist (250,000 samples, 3.45%)</title><rect x="783.1" y="245" width="40.7" height="15.0" fill="rgb(218,60,14)" rx="2" ry="2" />
<text  x="786.10" y="255.5" >Per..</text>
</g>
<g >
<title>XS_DynaLoader_dl_load_file (250,000 samples, 3.45%)</title><rect x="498.3" y="245" width="40.7" height="15.0" fill="rgb(208,15,3)" rx="2" ry="2" />
<text  x="501.28" y="255.5" >XS_..</text>
</g>
<g >
<title>Perl_Slab_Alloc (250,000 samples, 3.45%)</title><rect x="335.5" y="261" width="40.7" height="15.0" fill="rgb(217,57,13)" rx="2" ry="2" />
<text  x="338.52" y="271.5" >Per..</text>
</g>
<g >
<title>[perl] (5,750,000 samples, 79.31%)</title><rect x="10.0" y="597" width="935.9" height="15.0" fill="rgb(214,45,10)" rx="2" ry="2" />
<text  x="13.00" y="607.5" >[perl]</text>
</g>
<g >
<title>Perl_pad_findmy_pvn (250,000 samples, 3.45%)</title><rect x="864.5" y="485" width="40.7" height="15.0" fill="rgb(247,193,46)" rx="2" ry="2" />
<text  x="867.48" y="495.5" >Per..</text>
</g>
<g >
<title>[libperl.so.5.40.0] (250,000 samples, 3.45%)</title><rect x="10.0" y="469" width="40.7" height="15.0" fill="rgb(208,17,4)" rx="2" ry="2" />
<text  x="13.00" y="479.5" >[li..</text>
</g>
<g >
<title>_dl_map_object_from_fd (250,000 samples, 3.45%)</title><rect x="498.3" y="53" width="40.7" height="15.0" fill="rgb(249,205,49)" rx="2" ry="2" />
<text  x="501.28" y="63.5" >_dl..</text>
</g>
<g >
<title>_dl_map_object (250,000 samples, 3.45%)</title><rect x="498.3" y="69" width="40.7" height="15.0" fill="rgb(248,199,47)" rx="2" ry="2" />
<text  x="501.28" y="79.5" >_dl..</text>
</g>
<g >
<title>[libperl.so.5.40.0] (250,000 samples, 3.45%)</title><rect x="905.2" y="389" width="40.7" height="15.0" fill="rgb(208,17,4)" rx="2" ry="2" />
<text  x="908.17" y="399.5" >[li..</text>
</g>
<g >
<title>Perl_yylex (250,000 samples, 3.45%)</title><rect x="10.0" y="501" width="40.7" height="15.0" fill="rgb(207,13,3)" rx="2" ry="2" />
<text  x="13.00" y="511.5" >Per..</text>
</g>
<g >
<title>_dl_catch_error (250,000 samples, 3.45%)</title><rect x="498.3" y="197" width="40.7" height="15.0" fill="rgb(223,83,20)" rx="2" ry="2" />
<text  x="501.28" y="207.5" >_dl..</text>
</g>
<g >
<title>Perl_pad_alloc (250,000 samples, 3.45%)</title><rect x="172.8" y="325" width="40.6" height="15.0" fill="rgb(208,14,3)" rx="2" ry="2" />
<text  x="175.76" y="335.5" >Per..</text>
</g>
<g >
<title>dl_main (250,000 samples, 3.45%)</title><rect x="1149.3" y="549" width="40.7" height="15.0" fill="rgb(236,145,34)" rx="2" ry="2" />
<text  x="1152.31" y="559.5" >dl_..</text>
</g>
<g >
<title>Perl_leave_scope (250,000 samples, 3.45%)</title><rect x="376.2" y="341" width="40.7" height="15.0" fill="rgb(215,50,12)" rx="2" ry="2" />
<text  x="379.21" y="351.5" >Per..</text>
</g>
<g >
<title>[libperl.so.5.40.0] (250,000 samples, 3.45%)</title><rect x="620.3" y="149" width="40.7" height="15.0" fill="rgb(208,17,4)" rx="2" ry="2" />
<text  x="623.34" y="159.5" >[li..</text>
</g>
<g >
<title>__fstat64 (250,000 samples, 3.45%)</title><rect x="986.6" y="501" width="40.6" height="15.0" fill="rgb(224,88,21)" rx="2" ry="2" />
<text  x="989.55" y="511.5" >__f..</text>
</g>
<g >
<title>[libperl.so.5.40.0] (750,000 samples, 10.34%)</title><rect x="254.1" y="325" width="122.1" height="15.0" fill="rgb(208,17,4)" rx="2" ry="2" />
<text  x="257.14" y="335.5" >[libperl.so.5.4..</text>
</g>
<g >
<title>[libperl.so.5.40.0] (500,000 samples, 6.90%)</title><rect x="742.4" y="293" width="81.4" height="15.0" fill="rgb(208,17,4)" rx="2" ry="2" />
<text  x="745.41" y="303.5" >[libperl...</text>
</g>
<g >
<title>Perl_yylex (500,000 samples, 6.90%)</title><rect x="579.7" y="213" width="81.3" height="15.0" fill="rgb(207,13,3)" rx="2" ry="2" />
<text  x="582.66" y="223.5" >Perl_yylex</text>
</g>
<g >
<title>[libperl.so.5.40.0] (250,000 samples, 3.45%)</title><rect x="620.3" y="181" width="40.7" height="15.0" fill="rgb(208,17,4)" rx="2" ry="2" />
<text  x="623.34" y="191.5" >[li..</text>
</g>
<g >
<title>dlopen_doit (250,000 samples, 3.45%)</title><rect x="498.3" y="165" width="40.7" height="15.0" fill="rgb(211,31,7)" rx="2" ry="2" />
<text  x="501.28" y="175.5" >dlo..</text>
</g>
<g >
<title>[libperl.so.5.40.0] (5,000,000 samples, 68.97%)</title><rect x="50.7" y="469" width="813.8" height="15.0" fill="rgb(208,17,4)" rx="2" ry="2" />
<text  x="53.69" y="479.5" >[libperl.so.5.40.0]</text>
</g>
<g >
<title>Perl_av_extend@plt (250,000 samples, 3.45%)</title><rect x="172.8" y="309" width="40.6" height="15.0" fill="rgb(223,87,20)" rx="2" ry="2" />
<text  x="175.76" y="319.5" >Per..</text>
</g>
<g >
<title>[libperl.so.5.40.0] (3,000,000 samples, 41.38%)</title><rect x="376.2" y="357" width="488.3" height="15.0" fill="rgb(208,17,4)" rx="2" ry="2" />
<text  x="379.21" y="367.5" >[libperl.so.5.40.0]</text>
</g>
<g >
<title>cowsay (6,000,000 samples, 82.76%)</title><rect x="10.0" y="613" width="976.6" height="15.0" fill="rgb(237,147,35)" rx="2" ry="2" />
<text  x="13.00" y="623.5" >cowsay</text>
</g>
<g >
<title>_start (500,000 samples, 6.90%)</title><rect x="1108.6" y="597" width="81.4" height="15.0" fill="rgb(245,185,44)" rx="2" ry="2" />
<text  x="1111.62" y="607.5" >_start</text>
</g>
<g >
<title>perl_parse (5,500,000 samples, 75.86%)</title><rect x="10.0" y="533" width="895.2" height="15.0" fill="rgb(207,13,3)" rx="2" ry="2" />
<text  x="13.00" y="543.5" >perl_parse</text>
</g>
<g >
<title>[libperl.so.5.40.0] (250,000 samples, 3.45%)</title><rect x="905.2" y="421" width="40.7" height="15.0" fill="rgb(208,17,4)" rx="2" ry="2" />
<text  x="908.17" y="431.5" >[li..</text>
</g>
<g >
<title>Perl_newATTRSUB_x (5,000,000 samples, 68.97%)</title><rect x="50.7" y="485" width="813.8" height="15.0" fill="rgb(229,112,26)" rx="2" ry="2" />
<text  x="53.69" y="495.5" >Perl_newATTRSUB_x</text>
</g>
<g >
<title>[libperl.so.5.40.0] (250,000 samples, 3.45%)</title><rect x="701.7" y="325" width="40.7" height="15.0" fill="rgb(208,17,4)" rx="2" ry="2" />
<text  x="704.72" y="335.5" >[li..</text>
</g>
<g >
<title>__libc_start_main@@GLIBC_2.34 (250,000 samples, 3.45%)</title><rect x="986.6" y="581" width="40.6" height="15.0" fill="rgb(229,113,27)" rx="2" ry="2" />
<text  x="989.55" y="591.5" >__l..</text>
</g>
<g >
<title>Perl_op_convert_list (250,000 samples, 3.45%)</title><rect x="213.4" y="357" width="40.7" height="15.0" fill="rgb(242,173,41)" rx="2" ry="2" />
<text  x="216.45" y="367.5" >Per..</text>
</g>
<g >
<title>[libperl.so.5.40.0] (750,000 samples, 10.34%)</title><rect x="254.1" y="341" width="122.1" height="15.0" fill="rgb(208,17,4)" rx="2" ry="2" />
<text  x="257.14" y="351.5" >[libperl.so.5.4..</text>
</g>
<g >
<title>[libperl.so.5.40.0] (250,000 samples, 3.45%)</title><rect x="905.2" y="453" width="40.7" height="15.0" fill="rgb(208,17,4)" rx="2" ry="2" />
<text  x="908.17" y="463.5" >[li..</text>
</g>
<g >
<title>[libperl.so.5.40.0] (1,500,000 samples, 20.69%)</title><rect x="416.9" y="261" width="244.1" height="15.0" fill="rgb(208,17,4)" rx="2" ry="2" />
<text  x="419.90" y="271.5" >[libperl.so.5.40.0]</text>
</g>
<g >
<title>[libperl.so.5.40.0] (5,250,000 samples, 72.41%)</title><rect x="50.7" y="501" width="854.5" height="15.0" fill="rgb(208,17,4)" rx="2" ry="2" />
<text  x="53.69" y="511.5" >[libperl.so.5.40.0]</text>
</g>
<g >
<title>perl_run (250,000 samples, 3.45%)</title><rect x="905.2" y="533" width="40.7" height="15.0" fill="rgb(236,147,35)" rx="2" ry="2" />
<text  x="908.17" y="543.5" >per..</text>
</g>
<g >
<title>_dl_start (250,000 samples, 3.45%)</title><rect x="1149.3" y="581" width="40.7" height="15.0" fill="rgb(237,151,36)" rx="2" ry="2" />
<text  x="1152.31" y="591.5" >_dl..</text>
</g>
<g >
<title>[libperl.so.5.40.0] (500,000 samples, 6.90%)</title><rect x="742.4" y="309" width="81.4" height="15.0" fill="rgb(208,17,4)" rx="2" ry="2" />
<text  x="745.41" y="319.5" >[libperl...</text>
</g>
<g >
<title>Perl_re_op_compile (500,000 samples, 6.90%)</title><rect x="742.4" y="341" width="81.4" height="15.0" fill="rgb(227,101,24)" rx="2" ry="2" />
<text  x="745.41" y="351.5" >Perl_re_o..</text>
</g>
<g >
<title>[libperl.so.5.40.0] (4,750,000 samples, 65.52%)</title><rect x="91.4" y="389" width="773.1" height="15.0" fill="rgb(208,17,4)" rx="2" ry="2" />
<text  x="94.38" y="399.5" >[libperl.so.5.40.0]</text>
</g>
<g >
<title>dl_open_worker (250,000 samples, 3.45%)</title><rect x="498.3" y="117" width="40.7" height="15.0" fill="rgb(236,145,34)" rx="2" ry="2" />
<text  x="501.28" y="127.5" >dl_..</text>
</g>
<g >
<title>__libc_calloc (250,000 samples, 3.45%)</title><rect x="823.8" y="277" width="40.7" height="15.0" fill="rgb(205,4,0)" rx="2" ry="2" />
<text  x="826.79" y="287.5" >__l..</text>
</g>
<g >
<title>Perl_hv_common (250,000 samples, 3.45%)</title><rect x="457.6" y="245" width="40.7" height="15.0" fill="rgb(206,5,1)" rx="2" ry="2" />
<text  x="460.59" y="255.5" >Per..</text>
</g>
<g >
<title>_start (500,000 samples, 6.90%)</title><rect x="1027.2" y="597" width="81.4" height="15.0" fill="rgb(245,185,44)" rx="2" ry="2" />
<text  x="1030.24" y="607.5" >_start</text>
</g>
<g >
<title>Perl_call_sv (5,000,000 samples, 68.97%)</title><rect x="50.7" y="437" width="813.8" height="15.0" fill="rgb(216,51,12)" rx="2" ry="2" />
<text  x="53.69" y="447.5" >Perl_call_sv</text>
</g>
<g >
<title>[libperl.so.5.40.0] (500,000 samples, 6.90%)</title><rect x="579.7" y="197" width="81.3" height="15.0" fill="rgb(208,17,4)" rx="2" ry="2" />
<text  x="582.66" y="207.5" >[libperl...</text>
</g>
<g >
<title>_dlerror_run (250,000 samples, 3.45%)</title><rect x="498.3" y="213" width="40.7" height="15.0" fill="rgb(210,27,6)" rx="2" ry="2" />
<text  x="501.28" y="223.5" >_dl..</text>
</g>
<g >
<title>Perl_sv_grow (250,000 samples, 3.45%)</title><rect x="783.1" y="229" width="40.7" height="15.0" fill="rgb(240,161,38)" rx="2" ry="2" />
<text  x="786.10" y="239.5" >Per..</text>
</g>
<g >
<title>Perl_newPADNAMEpvn (250,000 samples, 3.45%)</title><rect x="823.8" y="309" width="40.7" height="15.0" fill="rgb(225,94,22)" rx="2" ry="2" />
<text  x="826.79" y="319.5" >Per..</text>
</g>
<g >
<title>dl_main (250,000 samples, 3.45%)</title><rect x="945.9" y="549" width="40.7" height="15.0" fill="rgb(236,145,34)" rx="2" ry="2" />
<text  x="948.86" y="559.5" >dl_..</text>
</g>
<g >
<title>[libperl.so.5.40.0] (250,000 samples, 3.45%)</title><rect x="335.5" y="293" width="40.7" height="15.0" fill="rgb(208,17,4)" rx="2" ry="2" />
<text  x="338.52" y="303.5" >[li..</text>
</g>
<g >
<title>Perl_newLISTOP (250,000 samples, 3.45%)</title><rect x="132.1" y="325" width="40.7" height="15.0" fill="rgb(246,190,45)" rx="2" ry="2" />
<text  x="135.07" y="335.5" >Per..</text>
</g>
<g >
<title>[ls] (250,000 samples, 3.45%)</title><rect x="986.6" y="597" width="40.6" height="15.0" fill="rgb(234,135,32)" rx="2" ry="2" />
<text  x="989.55" y="607.5" >[ls]</text>
</g>
<g >
<title>Perl_call_list (5,000,000 samples, 68.97%)</title><rect x="50.7" y="453" width="813.8" height="15.0" fill="rgb(253,221,52)" rx="2" ry="2" />
<text  x="53.69" y="463.5" >Perl_call_list</text>
</g>
<g >
<title>__libc_start_main@@GLIBC_2.34 (5,750,000 samples, 79.31%)</title><rect x="10.0" y="581" width="935.9" height="15.0" fill="rgb(229,113,27)" rx="2" ry="2" />
<text  x="13.00" y="591.5" >__libc_start_main@@GLIBC_2.34</text>
</g>
<g >
<title>[libperl.so.5.40.0] (250,000 samples, 3.45%)</title><rect x="905.2" y="501" width="40.7" height="15.0" fill="rgb(208,17,4)" rx="2" ry="2" />
<text  x="908.17" y="511.5" >[li..</text>
</g>
<g >
<title>[libperl.so.5.40.0] (250,000 samples, 3.45%)</title><rect x="10.0" y="485" width="40.7" height="15.0" fill="rgb(208,17,4)" rx="2" ry="2" />
<text  x="13.00" y="495.5" >[li..</text>
</g>
<g >
<title>[perl] (5,750,000 samples, 79.31%)</title><rect x="10.0" y="549" width="935.9" height="15.0" fill="rgb(214,45,10)" rx="2" ry="2" />
<text  x="13.00" y="559.5" >[perl]</text>
</g>
<g >
<title>[libperl.so.5.40.0] (5,500,000 samples, 75.86%)</title><rect x="10.0" y="517" width="895.2" height="15.0" fill="rgb(208,17,4)" rx="2" ry="2" />
<text  x="13.00" y="527.5" >[libperl.so.5.40.0]</text>
</g>
<g >
<title>[ls] (250,000 samples, 3.45%)</title><rect x="986.6" y="533" width="40.6" height="15.0" fill="rgb(234,135,32)" rx="2" ry="2" />
<text  x="989.55" y="543.5" >[ls]</text>
</g>
<g >
<title>_dl_lookup_symbol_x (500,000 samples, 6.90%)</title><rect x="1027.2" y="517" width="81.4" height="15.0" fill="rgb(211,28,6)" rx="2" ry="2" />
<text  x="1030.24" y="527.5" >_dl_looku..</text>
</g>
<g >
<title>_dl_relocate_object (500,000 samples, 6.90%)</title><rect x="1027.2" y="533" width="81.4" height="15.0" fill="rgb(231,120,28)" rx="2" ry="2" />
<text  x="1030.24" y="543.5" >_dl_reloc..</text>
</g>
<g >
<title>[libperl.so.5.40.0] (750,000 samples, 10.34%)</title><rect x="539.0" y="245" width="122.0" height="15.0" fill="rgb(208,17,4)" rx="2" ry="2" />
<text  x="541.97" y="255.5" >[libperl.so.5.4..</text>
</g>
<g >
<title>[libperl.so.5.40.0] (250,000 samples, 3.45%)</title><rect x="905.2" y="309" width="40.7" height="15.0" fill="rgb(208,17,4)" rx="2" ry="2" />
<text  x="908.17" y="319.5" >[li..</text>
</g>
<g >
<title>[libperl.so.5.40.0] (250,000 samples, 3.45%)</title><rect x="905.2" y="325" width="40.7" height="15.0" fill="rgb(208,17,4)" rx="2" ry="2" />
<text  x="908.17" y="335.5" >[li..</text>
</g>
<g >
<title>[libperl.so.5.40.0] (1,500,000 samples, 20.69%)</title><rect x="416.9" y="325" width="244.1" height="15.0" fill="rgb(208,17,4)" rx="2" ry="2" />
<text  x="419.90" y="335.5" >[libperl.so.5.40.0]</text>
</g>
<g >
<title>__libc_start_main@@GLIBC_2.34 (250,000 samples, 3.45%)</title><rect x="1108.6" y="581" width="40.7" height="15.0" fill="rgb(229,113,27)" rx="2" ry="2" />
<text  x="1111.62" y="591.5" >__l..</text>
</g>
<g >
<title>_start (250,000 samples, 3.45%)</title><rect x="945.9" y="597" width="40.7" height="15.0" fill="rgb(245,185,44)" rx="2" ry="2" />
<text  x="948.86" y="607.5" >_st..</text>
</g>
<g >
<title>main (250,000 samples, 3.45%)</title><rect x="1108.6" y="549" width="40.7" height="15.0" fill="rgb(243,179,42)" rx="2" ry="2" />
<text  x="1111.62" y="559.5" >main</text>
</g>
<g >
<title>_dl_sysdep_start (250,000 samples, 3.45%)</title><rect x="1149.3" y="565" width="40.7" height="15.0" fill="rgb(234,137,32)" rx="2" ry="2" />
<text  x="1152.31" y="575.5" >_dl..</text>
</g>
<g >
<title>Perl_re_op_compile (250,000 samples, 3.45%)</title><rect x="905.2" y="485" width="40.7" height="15.0" fill="rgb(227,101,24)" rx="2" ry="2" />
<text  x="908.17" y="495.5" >Per..</text>
</g>
<g >
<title>Perl_yylex (750,000 samples, 10.34%)</title><rect x="254.1" y="357" width="122.1" height="15.0" fill="rgb(207,13,3)" rx="2" ry="2" />
<text  x="257.14" y="367.5" >Perl_yylex</text>
</g>
<g >
<title>__libc_start_call_main (250,000 samples, 3.45%)</title><rect x="1108.6" y="565" width="40.7" height="15.0" fill="rgb(210,26,6)" rx="2" ry="2" />
<text  x="1111.62" y="575.5" >__l..</text>
</g>
<g >
<title>_dl_catch_exception (250,000 samples, 3.45%)</title><rect x="498.3" y="181" width="40.7" height="15.0" fill="rgb(253,223,53)" rx="2" ry="2" />
<text  x="501.28" y="191.5" >_dl..</text>
</g>
<g >
<title>Perl_newSVOP (250,000 samples, 3.45%)</title><rect x="335.5" y="277" width="40.7" height="15.0" fill="rgb(245,188,45)" rx="2" ry="2" />
<text  x="338.52" y="287.5" >Per..</text>
</g>
<g >
<title>[libperl.so.5.40.0] (250,000 samples, 3.45%)</title><rect x="905.2" y="437" width="40.7" height="15.0" fill="rgb(208,17,4)" rx="2" ry="2" />
<text  x="908.17" y="447.5" >[li..</text>
</g>
<g >
<title>Perl_hv_common (250,000 samples, 3.45%)</title><rect x="50.7" y="389" width="40.7" height="15.0" fill="rgb(206,5,1)" rx="2" ry="2" />
<text  x="53.69" y="399.5" >Per..</text>
</g>
<g >
<title>_dl_relocate_object (250,000 samples, 3.45%)</title><rect x="1149.3" y="533" width="40.7" height="15.0" fill="rgb(231,120,28)" rx="2" ry="2" />
<text  x="1152.31" y="543.5" >_dl..</text>
</g>
<g >
<title>_int_malloc (250,000 samples, 3.45%)</title><rect x="335.5" y="229" width="40.7" height="15.0" fill="rgb(215,47,11)" rx="2" ry="2" />
<text  x="338.52" y="239.5" >_in..</text>
</g>
<g >
<title>[libperl.so.5.40.0] (250,000 samples, 3.45%)</title><rect x="905.2" y="373" width="40.7" height="15.0" fill="rgb(208,17,4)" rx="2" ry="2" />
<text  x="908.17" y="383.5" >[li..</text>
</g>
<g >
<title>Perl_sv_clear (250,000 samples, 3.45%)</title><rect x="905.2" y="277" width="40.7" height="15.0" fill="rgb(224,91,21)" rx="2" ry="2" />
<text  x="908.17" y="287.5" >Per..</text>
</g>
<g >
<title>_dl_start (250,000 samples, 3.45%)</title><rect x="945.9" y="581" width="40.7" height="15.0" fill="rgb(237,151,36)" rx="2" ry="2" />
<text  x="948.86" y="591.5" >_dl..</text>
</g>
<g >
<title>[libperl.so.5.40.0] (250,000 samples, 3.45%)</title><rect x="172.8" y="341" width="40.6" height="15.0" fill="rgb(208,17,4)" rx="2" ry="2" />
<text  x="175.76" y="351.5" >[li..</text>
</g>
<g >
<title>Perl_skipspace_flags (250,000 samples, 3.45%)</title><rect x="254.1" y="309" width="40.7" height="15.0" fill="rgb(220,71,17)" rx="2" ry="2" />
<text  x="257.14" y="319.5" >Per..</text>
</g>
<g >
<title>[libperl.so.5.40.0] (250,000 samples, 3.45%)</title><rect x="783.1" y="277" width="40.7" height="15.0" fill="rgb(208,17,4)" rx="2" ry="2" />
<text  x="786.10" y="287.5" >[li..</text>
</g>
<g >
<title>_IO_file_doallocate (250,000 samples, 3.45%)</title><rect x="1108.6" y="437" width="40.7" height="15.0" fill="rgb(233,130,31)" rx="2" ry="2" />
<text  x="1111.62" y="447.5" >_IO..</text>
</g>
<g >
<title>[libperl.so.5.40.0] (250,000 samples, 3.45%)</title><rect x="457.6" y="229" width="40.7" height="15.0" fill="rgb(208,17,4)" rx="2" ry="2" />
<text  x="460.59" y="239.5" >[li..</text>
</g>
<g >
<title>_dl_catch_exception (250,000 samples, 3.45%)</title><rect x="498.3" y="133" width="40.7" height="15.0" fill="rgb(253,223,53)" rx="2" ry="2" />
<text  x="501.28" y="143.5" >_dl..</text>
</g>
<g >
<title>[libperl.so.5.40.0] (250,000 samples, 3.45%)</title><rect x="905.2" y="357" width="40.7" height="15.0" fill="rgb(208,17,4)" rx="2" ry="2" />
<text  x="908.17" y="367.5" >[li..</text>
</g>
<g >
<title>[libperl.so.5.40.0] (5,000,000 samples, 68.97%)</title><rect x="50.7" y="405" width="813.8" height="15.0" fill="rgb(208,17,4)" rx="2" ry="2" />
<text  x="53.69" y="415.5" >[libperl.so.5.40.0]</text>
</g>
<g >
<title>_IO_file_overflow@@GLIBC_2.17 (250,000 samples, 3.45%)</title><rect x="1108.6" y="469" width="40.7" height="15.0" fill="rgb(229,114,27)" rx="2" ry="2" />
<text  x="1111.62" y="479.5" >_IO..</text>
</g>
<g >
<title>Perl_newUNOP (250,000 samples, 3.45%)</title><rect x="172.8" y="357" width="40.6" height="15.0" fill="rgb(234,136,32)" rx="2" ry="2" />
<text  x="175.76" y="367.5" >Per..</text>
</g>
<g >
<title>std::basic_ostream&lt;char, std::char_traits&lt;char&gt; &gt;&amp; std::__ostream_insert&lt;char, std::char_traits&lt;char&gt; &gt; (250,000 samples, 3.45%)</title><rect x="1108.6" y="517" width="40.7" height="15.0" fill="rgb(220,73,17)" rx="2" ry="2" />
<text  x="1111.62" y="527.5" >std..</text>
</g>
<g >
<title>Perl_skipspace_flags (250,000 samples, 3.45%)</title><rect x="620.3" y="133" width="40.7" height="15.0" fill="rgb(220,71,17)" rx="2" ry="2" />
<text  x="623.34" y="143.5" >Per..</text>
</g>
<g >
<title>Perl_sv_free2 (250,000 samples, 3.45%)</title><rect x="905.2" y="293" width="40.7" height="15.0" fill="rgb(254,227,54)" rx="2" ry="2" />
<text  x="908.17" y="303.5" >Per..</text>
</g>
<g >
<title>_dl_catch_exception (250,000 samples, 3.45%)</title><rect x="498.3" y="101" width="40.7" height="15.0" fill="rgb(253,223,53)" rx="2" ry="2" />
<text  x="501.28" y="111.5" >_dl..</text>
</g>
<g >
<title>dlopen@@GLIBC_2.34 (250,000 samples, 3.45%)</title><rect x="498.3" y="229" width="40.7" height="15.0" fill="rgb(209,22,5)" rx="2" ry="2" />
<text  x="501.28" y="239.5" >dlo..</text>
</g>
<g >
<title>Perl_pad_add_name_pvn (250,000 samples, 3.45%)</title><rect x="823.8" y="325" width="40.7" height="15.0" fill="rgb(250,209,50)" rx="2" ry="2" />
<text  x="826.79" y="335.5" >Per..</text>
</g>
<g >
<title>Perl_runops_standard (5,000,000 samples, 68.97%)</title><rect x="50.7" y="421" width="813.8" height="15.0" fill="rgb(212,32,7)" rx="2" ry="2" />
<text  x="53.69" y="431.5" >Perl_runops_standard</text>
</g>
<g >
<title>dl_open_worker_begin (250,000 samples, 3.45%)</title><rect x="498.3" y="85" width="40.7" height="15.0" fill="rgb(233,129,31)" rx="2" ry="2" />
<text  x="501.28" y="95.5" >dl_..</text>
</g>
<g >
<title>all (7,250,000 samples, 100%)</title><rect x="10.0" y="629" width="1180.0" height="15.0" fill="rgb(213,39,9)" rx="2" ry="2" />
<text  x="13.00" y="639.5" ></text>
</g>
<g >
<title>[libperl.so.5.40.0] (4,750,000 samples, 65.52%)</title><rect x="91.4" y="373" width="773.1" height="15.0" fill="rgb(208,17,4)" rx="2" ry="2" />
<text  x="94.38" y="383.5" >[libperl.so.5.40.0]</text>
</g>
<g >
<title>_dl_sysdep_start (500,000 samples, 6.90%)</title><rect x="1027.2" y="565" width="81.4" height="15.0" fill="rgb(234,137,32)" rx="2" ry="2" />
<text  x="1030.24" y="575.5" >_dl_sysde..</text>
</g>
<g >
<title>Perl_call_list (1,500,000 samples, 20.69%)</title><rect x="416.9" y="309" width="244.1" height="15.0" fill="rgb(253,221,52)" rx="2" ry="2" />
<text  x="419.90" y="319.5" >Perl_call_list</text>
</g>
<g >
<title>Perl_newSTATEOP (250,000 samples, 3.45%)</title><rect x="539.0" y="213" width="40.7" height="15.0" fill="rgb(250,209,50)" rx="2" ry="2" />
<text  x="541.97" y="223.5" >Per..</text>
</g>
<g >
<title>Perl_newGVOP (250,000 samples, 3.45%)</title><rect x="661.0" y="341" width="40.7" height="15.0" fill="rgb(223,84,20)" rx="2" ry="2" />
<text  x="664.03" y="351.5" >Per..</text>
</g>
<g >
<title>dl_main (500,000 samples, 6.90%)</title><rect x="1027.2" y="549" width="81.4" height="15.0" fill="rgb(236,145,34)" rx="2" ry="2" />
<text  x="1030.24" y="559.5" >dl_main</text>
</g>
<g >
<title>[libperl.so.5.40.0] (250,000 samples, 3.45%)</title><rect x="823.8" y="341" width="40.7" height="15.0" fill="rgb(208,17,4)" rx="2" ry="2" />
<text  x="826.79" y="351.5" >[li..</text>
</g>
<g >
<title>_dl_relocate_object (250,000 samples, 3.45%)</title><rect x="945.9" y="533" width="40.7" height="15.0" fill="rgb(231,120,28)" rx="2" ry="2" />
<text  x="948.86" y="543.5" >_dl..</text>
</g>
<g >
<title>[libperl.so.5.40.0] (250,000 samples, 3.45%)</title><rect x="905.2" y="341" width="40.7" height="15.0" fill="rgb(208,17,4)" rx="2" ry="2" />
<text  x="908.17" y="351.5" >[li..</text>
</g>
<g >
<title>opendir_tail (250,000 samples, 3.45%)</title><rect x="986.6" y="517" width="40.6" height="15.0" fill="rgb(233,131,31)" rx="2" ry="2" />
<text  x="989.55" y="527.5" >ope..</text>
</g>
<g >
<title>_dl_start (500,000 samples, 6.90%)</title><rect x="1027.2" y="581" width="81.4" height="15.0" fill="rgb(237,151,36)" rx="2" ry="2" />
<text  x="1030.24" y="591.5" >_dl_start</text>
</g>
</g>
</svg>
